<svg id="Layer_1" data-name="Layer 1" xmlns="http://www.w3.org/2000/svg" viewBox="0 0 52.26 52.26"><defs><style>.cls-1{fill:#f4f4f4;}</style></defs><title>social-twitter-white</title><rect class="cls-1" width="52.26" height="52.26"/><path d="M656.44,3565a6,6,0,0,0-4.05,6l0.06,1-1-.13a16.89,16.89,0,0,1-9.89-4.87l-1.37-1.37-0.35,1a6.07,6.07,0,0,0,1.29,6.22c0.83,0.88.64,1-.79,0.48a2.42,2.42,0,0,0-1-.23,7.54,7.54,0,0,0,.75,2.82,6.72,6.72,0,0,0,2.85,2.69l1,0.48-1.21,0c-1.16,0-1.21,0-1.08.46a6.28,6.28,0,0,0,3.88,3.45l1.29,0.44-1.12.67a11.63,11.63,0,0,1-5.57,1.55,6.13,6.13,0,0,0-1.7.17,15.92,15.92,0,0,0,4,1.85,17.53,17.53,0,0,0,13.63-1.55,18.26,18.26,0,0,0,6.92-8.15,21.65,21.65,0,0,0,1.41-6.3c0-1,.06-1.09,1.22-2.25a14,14,0,0,0,1.46-1.62c0.21-.4.19-0.4-0.87,0-1.77.63-2,.55-1.14-0.4a6.13,6.13,0,0,0,1.41-2.25,1.13,1.13,0,0,0-.66.23,11.4,11.4,0,0,1-1.83.71l-1.12.36-1-.7a8.48,8.48,0,0,0-1.77-.92A7.1,7.1,0,0,0,656.44,3565Z" transform="translate(-626.68 -3550.53)"/></svg>