<svg id="Layer_1" data-name="Layer 1" xmlns="http://www.w3.org/2000/svg" viewBox="0 0 51 51"><defs><style>.cls-1{fill:#f4f4f4;}</style></defs><title>social-youtube-white</title><rect class="cls-1" width="51" height="51"/><path d="M809,3582.92a0.58,0.58,0,0,0-.5.2,1.12,1.12,0,0,0-.15.66v0.75h1.29v-0.75a1.1,1.1,0,0,0-.15-0.66A0.55,0.55,0,0,0,809,3582.92Z" transform="translate(-774.78 -3550.48)"/><path d="M804,3582.89a0.7,0.7,0,0,0-.31.07,1.1,1.1,0,0,0-.3.23v4.62a1.27,1.27,0,0,0,.35.26,0.81,0.81,0,0,0,.35.08,0.46,0.46,0,0,0,.39-0.16,0.82,0.82,0,0,0,.13-0.51v-3.83a0.9,0.9,0,0,0-.15-0.57A0.54,0.54,0,0,0,804,3582.89Z" transform="translate(-774.78 -3550.48)"/><path d="M812.07,3577.14c-1.2-1.2-11.29-1.21-11.29-1.21s-10.09,0-11.29,1.21-1.2,7.11-1.2,7.14,0,5.95,1.2,7.15,11.29,1.22,11.29,1.22,10.09,0,11.29-1.22,1.22-7.15,1.22-7.15S813.27,3578.34,812.07,3577.14ZM796,3580.63h-1.7v8.59h-1.64v-8.59h-1.7v-1.46h5v1.46h0Zm4.8,8.59h-1.46v-0.81a3.13,3.13,0,0,1-.84.69,1.76,1.76,0,0,1-.85.24,0.9,0.9,0,0,1-.76-0.33,1.63,1.63,0,0,1-.25-1v-6.2h1.46v5.69a0.65,0.65,0,0,0,.09.38,0.36,0.36,0,0,0,.3.12,0.8,0.8,0,0,0,.41-0.16,2,2,0,0,0,.45-0.4v-5.63h1.46v7.42Zm5.29-1.53a1.87,1.87,0,0,1-.34,1.21,1.2,1.2,0,0,1-1,.42,1.69,1.69,0,0,1-.76-0.16,1.87,1.87,0,0,1-.62-0.5v0.57h-1.47v-10h1.47v3.24a2.19,2.19,0,0,1,.62-0.51,1.42,1.42,0,0,1,.67-0.18,1.25,1.25,0,0,1,1.06.47,2.23,2.23,0,0,1,.36,1.39v4.11Zm5.06-2h-2.79v1.39a1.66,1.66,0,0,0,.14.81,0.54,0.54,0,0,0,.49.22,0.6,0.6,0,0,0,.51-0.19,1.59,1.59,0,0,0,.15-0.85v-0.34h1.5v0.38a2.41,2.41,0,0,1-.55,1.72,2.15,2.15,0,0,1-1.64.57,2,2,0,0,1-1.54-.61,2.39,2.39,0,0,1-.56-1.68v-3.33a2.11,2.11,0,0,1,.62-1.57,2.18,2.18,0,0,1,1.6-.61,2,2,0,0,1,1.54.56,2.25,2.25,0,0,1,.54,1.62v1.89h0Z" transform="translate(-774.78 -3550.48)"/><path d="M808.48,3571.6h-1.64v-0.9a3.45,3.45,0,0,1-.94.76,2,2,0,0,1-1,.26,1,1,0,0,1-.86-0.36,1.75,1.75,0,0,1-.29-1.09v-6.83h1.64v6.26a0.68,0.68,0,0,0,.11.42,0.4,0.4,0,0,0,.33.13,0.94,0.94,0,0,0,.46-0.17,2.18,2.18,0,0,0,.51-0.44v-6.2h1.64v8.17h0Z" transform="translate(-774.78 -3550.48)"/><path d="M801.81,3563.82a2.39,2.39,0,0,0-1.67-.59,2.66,2.66,0,0,0-1.78.56,1.87,1.87,0,0,0-.66,1.51v4.23a2.19,2.19,0,0,0,.65,1.66,2.4,2.4,0,0,0,1.72.62,2.48,2.48,0,0,0,1.76-.6,2.14,2.14,0,0,0,.64-1.64v-4.22A2,2,0,0,0,801.81,3563.82Zm-1,5.87a0.69,0.69,0,0,1-.2.52,0.74,0.74,0,0,1-.53.19,0.65,0.65,0,0,1-.5-0.18,0.73,0.73,0,0,1-.18-0.52v-4.45a0.55,0.55,0,0,1,.19-0.43,0.72,0.72,0,0,1,.49-0.16,0.8,0.8,0,0,1,.52.16,0.53,0.53,0,0,1,.2.43v4.45Z" transform="translate(-774.78 -3550.48)"/><polygon points="18.45 10.05 16.59 10.05 18.79 16.73 18.79 21.12 20.64 21.12 20.64 16.52 22.79 10.05 20.91 10.05 19.77 14.47 19.65 14.47 18.45 10.05"/></svg>